<?xml version="1.0" encoding="UTF-8"?>
<svg id="Layer_1" data-name="Layer 1" xmlns="http://www.w3.org/2000/svg" viewBox="0 0 527.61 761.55">
  <defs>
    <style>
      .cls-1 {
        fill: #606060;
      }

      .cls-1, .cls-2 {
        stroke-width: 0px;
      }

      .cls-2 {
        fill: #7395ae;
      }
    </style>
  </defs>
  <path class="cls-1" d="m308.68,352.65l-6.99,8.79c-14.11,17.71-28.02,35.54-42.27,53.25.13.13.27.13.27.2l-5.06,6.66c.07.13.33.27.47.33,6.86-8.52,13.58-17.17,20.57-25.89,6.86-8.65,13.85-17.44,20.83-26.23,0,0,0,.13.13.27,2.06-2.66,3.99-5.06,6.12-7.72l6.86-8.79c-.2-.27-.6-.47-.93-.87Zm10.72,7.99l-.27.33-12.71,16.24c24.9,18.57,50.66,36.48,77.55,53.38-10.98,23.56-23.76,45.86-38.07,67.16,9.85,8.79,19.04,17.37,27.42,25.29,15.91-23.23,30.35-47.59,42.67-73.55,17.57,9.59,35.15,18.64,53.12,26.69l2-15.18c-57.44-34.55-107.9-68.49-151.7-100.38Zm-10.72-7.99c-9.98-7.19-19.5-14.44-28.69-21.57-.07-.13-.2-.33-.47-.33-7.92,10.12-15.98,20.24-24.1,30.35-8.19,10.12-16.37,20.24-24.56,30.42-1.93,2.53-3.93,5.06-5.86,7.52.33.2.73.6,1.07.8,9.72,7.26,19.24,14.58,28.56,21.7.07.13.33.27.47.33,6.86-8.52,13.58-17.17,20.57-25.89,6.99-8.65,13.98-17.31,20.97-25.96,2.06-2.66,3.99-5.06,6.12-7.72l6.86-8.79c-.2-.27-.6-.47-.93-.87Zm113.29-142.11c-.2-.2-.47-.6-.8-.8-9.05-7.99-18.31-15.31-27.82-22.03-.13.2-.4.47-.53.73-.07-.13-.33-.27-.33-.27-.33-.33-.6-.73-.93-.87l-23.03,29.16c.33.27.6.6,1,.87q.07,0,.2.13c-.33.33-.73.67-1.06,1.2-9.39,11.91-18.77,23.56-28.16,35.41-9.45,11.65-18.7,23.3-28.09,34.88-3.86,4.79-7.59,9.52-11.45,14.31.4.4.73.53,1.06.73,4.59,3.73,9.45,7.46,14.24,11.12,4.93,3.59,9.85,7.32,14.91,10.92l10.72-13.45,1.13-1.46s2.73-3.46,7.32-9.25c19.5-24.96,71.62-91.33,71.76-91.33h-.13Zm100.31,178.59c-10.92-61.97-38.27-116.42-82.34-161.48-3-3-6.06-5.86-9.05-8.79l-2.86,3.73c-4.59,5.79-13.38,16.97-23.36,29.89,5.79,11.32,8.65,23.63,9.98,36.48,3.26,29.42-1.93,57.91-9.78,86.13-.2.8-.47,1.66-.67,2.53,10.45,6.99,21.03,14.04,32.15,21.03,3.46-10.58,6.46-21.03,8.99-31.88,4.46-19.17,6.12-38.81,7.59-58.44-.2-.33-.47-1.07.27-1.2.2,0,.6.73.93,1.13,19.64,33.68,30.62,70.03,34.81,108.7.6,4.93.87,9.98,1.2,15.31.13,4.19.4,8.32.73,12.78,0,0,1.2,9.59-1.06,27.16-6.26-3.59-12.51-7.46-18.7-11.18-57.44-34.55-107.9-68.49-151.7-100.38l-.27.33-12.71,16.24c24.9,18.57,50.66,36.48,77.55,53.38-10.98,23.56-23.76,45.86-38.07,67.16,9.85,8.79,19.04,17.37,27.42,25.29,15.91-23.23,30.35-47.59,42.67-73.55,17.57,9.59,35.15,18.64,53.12,26.69,6.26,2.8,12.51,5.46,18.77,7.85-5.79,41.87-20.1,79.61-42.87,114.29-1.2,1.93-2.53,3.73-3.73,5.52-5.92,9.25-12.91,17.71-17.57,22.96-3.13-3.86-9.78-11.78-19.9-23.23-27.22-29.75-79.34-82.81-160.75-146.77l-.13.13c-5.19,6.39-10.32,12.85-15.51,19.37l-2.8,3.59,83.34,66.1c-6.72,12.18-48.66,52.99-71.49,69.63-21.97-21.77-44.47-43-68.56-62.97-3.13,4.59-9.52,12.65-22.23,29.02l-.4.47c20.83,17.44,40.74,35.88,60.84,55.78-46.86,26.49-93.26,50.79-150.3,34.55,24.1-30.22,47.46-59.51,70.82-89.13-9.79-6.99-18.84-14.18-27.62-22.17l-.6-.33-.33-.33L2.82,681.61c.27.27.27.87.33,1.6,4.59,3.73,9.19,7.32,13.85,10.98,18.24,14.51,38.94,27.16,59.97,37.21,13.38,6.32,27.36,11.65,41.47,16.11,28.02,8.65,57.18,13.38,86.53,13.98,29.16.6,58.44-2.8,86.73-10.12,28.56-7.32,55.98-18.77,81.27-33.81,13.51-7.99,26.23-16.91,38.27-26.89,38.41-31.55,69.16-71.89,89.46-117.42,1-2.13,2.06-4.33,3.06-6.72,9.52-22.5,16.24-46.26,20.1-70.42,5.66-35.54,4.66-71.69-1.6-106.97Zm-392.66,322.24c18.31-4.53,35.88-11.05,52.85-18.9,17.37-7.72,33.48-16.97,49.39-27.56,14.91,16.71,29.16,33.75,42.4,52.39-49.26,10.98-97.32,9.52-144.64-5.92Zm182.05-5.26c-14.91-22.43-31.75-42.87-49.46-62.97,13.98-11.45,27.09-22.9,39.47-35.08,12.51-12.05,24.43-24.7,35.88-38.54,17.84,14.31,35.41,28.29,53.12,42.27,9.05,7.26,18.04,14.31,27.09,21.57-29.62,32.75-64.9,56.85-106.1,72.75Zm-107.17-278.9c-.33-.4-.73-.6-1.06-.73-6.06,7.46-11.91,15.04-17.84,22.5-.33.53-.73,1-1.07,1.46-2.4,3.13-4.93,6.12-7.39,9.25-1.66,2.06-3.33,4.26-5.06,6.39-21.43,27.49-63.9,81.54-66.43,84.8.27.33.47.73.87.93,8.99,8.05,18.17,15.31,27.69,22.17.2-.33.33-.47.6-.73,0,0,.2.13.33.27.47,0,22.76-28.49,22.76-29.29.33-.47.73-.93.93-1.33,9.45-11.78,18.84-23.56,28.22-35.35,9.25-11.85,18.51-23.5,27.96-35.35l.07.27c6.19-7.72,12.31-15.38,18.44-23.1-9.25-7.39-18.9-14.71-29.02-22.17Zm104.17-74.55l-6.99,8.79c-14.11,17.71-28.02,35.54-42.27,53.25.13.13.27.13.27.2l-5.06,6.66c.07.13.33.27.47.33,6.86-8.52,13.58-17.17,20.57-25.89,6.86-8.65,13.85-17.44,20.83-26.23,0,0,0,.13.13.27,2.06-2.66,3.99-5.06,6.12-7.72l6.86-8.79c-.2-.27-.6-.47-.93-.87Zm10.72,7.99l-.27.33-12.71,16.24c24.9,18.57,50.66,36.48,77.55,53.38-10.98,23.56-23.76,45.86-38.07,67.16,9.85,8.79,19.04,17.37,27.42,25.29,15.91-23.23,30.35-47.59,42.67-73.55,17.57,9.59,35.15,18.64,53.12,26.69l2-15.18c-57.44-34.55-107.9-68.49-151.7-100.38Zm-10.72-7.99l-6.99,8.79c-14.11,17.71-28.02,35.54-42.27,53.25.13.13.27.13.27.2l-5.06,6.66c.07.13.33.27.47.33,6.86-8.52,13.58-17.17,20.57-25.89,6.86-8.65,13.85-17.44,20.83-26.23,0,0,0,.13.13.27,2.06-2.66,3.99-5.06,6.12-7.72l6.86-8.79c-.2-.27-.6-.47-.93-.87Zm10.72,7.99l-.27.33-12.71,16.24c24.9,18.57,50.66,36.48,77.55,53.38-10.98,23.56-23.76,45.86-38.07,67.16,9.85,8.79,19.04,17.37,27.42,25.29,15.91-23.23,30.35-47.59,42.67-73.55,17.57,9.59,35.15,18.64,53.12,26.69l2-15.18c-57.44-34.55-107.9-68.49-151.7-100.38Z"/>
  <path class="cls-2" d="m308.68,352.65c-9.98-7.19-19.5-14.44-28.69-21.57-.07-.13-.2-.33-.47-.33-7.92,10.12-15.98,20.24-24.1,30.35-8.19,10.12-16.37,20.24-24.56,30.42-28.02-21.03-56.91-41.54-87.27-60.57,12.51-27.09,27.22-52.25,44.4-76.22-9.98-8.79-19.1-17.17-27.56-25.16-18.57,26.03-34.95,53.25-48.86,82.61-20.5-11.45-40.87-21.63-62.04-30.69-1.66-.73-3.53-1.46-5.46-2.2,1.86,1,3.66,2.06,5.46,3.13,67.76,40.47,125.94,80.01,175.46,116.62.33.2.73.6,1.07.8,9.72,7.26,19.24,14.58,28.56,21.7l5.06-6.66c0-.07-.13-.07-.27-.2,14.24-17.71,28.16-35.55,42.27-53.25l6.99-8.79Zm-12.05,17.37c-.13-.13-.13-.27-.13-.27-6.99,8.79-13.98,17.57-20.83,26.23-6.99,8.72-13.71,17.37-20.57,25.89.27.13.33.13.6.4l5.06-6.66s-.13,0-.27-.13l36.14-45.46Zm12.05-17.37c-9.98-7.19-19.5-14.44-28.69-21.57-.07-.13-.2-.33-.47-.33-7.92,10.12-15.98,20.24-24.1,30.35-8.19,10.12-16.37,20.24-24.56,30.42-28.02-21.03-56.91-41.54-87.27-60.57,12.51-27.09,27.22-52.25,44.4-76.22-9.98-8.79-19.1-17.17-27.56-25.16-18.57,26.03-34.95,53.25-48.86,82.61-20.5-11.45-40.87-21.63-62.04-30.69-1.66-.73-3.53-1.46-5.46-2.2,1.86,1,3.66,2.06,5.46,3.13,67.76,40.47,125.94,80.01,175.46,116.62.33.2.73.6,1.07.8,9.72,7.26,19.24,14.58,28.56,21.7.07.13.33.27.47.33.27.13.33.13.6.4l5.06-6.66s-.13,0-.27-.13l36.14-45.46c2.06-2.66,3.99-5.06,6.12-7.72l6.86-8.79c-.2-.27-.6-.47-.93-.87Zm0,0c-9.98-7.19-19.5-14.44-28.69-21.57-.07-.13-.2-.33-.47-.33-7.92,10.12-15.98,20.24-24.1,30.35-8.19,10.12-16.37,20.24-24.56,30.42-28.02-21.03-56.91-41.54-87.27-60.57,12.51-27.09,27.22-52.25,44.4-76.22-9.98-8.79-19.1-17.17-27.56-25.16-18.57,26.03-34.95,53.25-48.86,82.61-20.5-11.45-40.87-21.63-62.04-30.69-1.66-.73-3.53-1.46-5.46-2.2,1.86,1,3.66,2.06,5.46,3.13,67.76,40.47,125.94,80.01,175.46,116.62.33.2.73.6,1.07.8,9.72,7.26,19.24,14.58,28.56,21.7.07.13.33.27.47.33.27.13.33.13.6.4l5.06-6.66s-.13,0-.27-.13l36.14-45.46c2.06-2.66,3.99-5.06,6.12-7.72l6.86-8.79c-.2-.27-.6-.47-.93-.87Zm0,0c-9.98-7.19-19.5-14.44-28.69-21.57-.07-.13-.2-.33-.47-.33-7.92,10.12-15.98,20.24-24.1,30.35-8.19,10.12-16.37,20.24-24.56,30.42-28.02-21.03-56.91-41.54-87.27-60.57,12.51-27.09,27.22-52.25,44.4-76.22-9.98-8.79-19.1-17.17-27.56-25.16-18.57,26.03-34.95,53.25-48.86,82.61-20.5-11.45-40.87-21.63-62.04-30.69-1.66-.73-3.53-1.46-5.46-2.2,1.86,1,3.66,2.06,5.46,3.13,67.76,40.47,125.94,80.01,175.46,116.62.33.2.73.6,1.07.8,9.72,7.26,19.24,14.58,28.56,21.7.07.13.33.27.47.33.27.13.33.13.6.4l5.06-6.66s-.13,0-.27-.13l36.14-45.46c2.06-2.66,3.99-5.06,6.12-7.72l6.86-8.79c-.2-.27-.6-.47-.93-.87Z"/>
  <path class="cls-2" d="m308.68,352.65c-9.98-7.19-19.5-14.44-28.69-21.57-.07-.13-.2-.33-.47-.33-7.92,10.12-15.98,20.24-24.1,30.35-8.05,10.12-16.11,20.3-24.3,30.69-.13,0-.13-.13-.27-.27-28.02-21.03-56.91-41.54-87.27-60.57,12.51-27.09,27.22-52.25,44.4-76.22-9.98-8.79-19.1-17.17-27.56-25.16-18.57,26.03-34.95,53.25-48.86,82.61-20.5-11.45-40.87-21.63-62.04-30.69-1.66-.73-3.53-1.46-5.46-2.2,1.86,1,3.66,2.06,5.46,3.13,67.76,40.47,125.94,80.01,175.46,116.62.33.2.73.6,1.07.8,9.72,7.26,19.24,14.58,28.56,21.7.07.13.33.27.47.33.27.13.33.13.6.4l5.06-6.66s-.13,0-.27-.13l36.14-45.46c2.06-2.66,3.99-5.06,6.12-7.72l6.86-8.79c-.2-.27-.6-.47-.93-.87Zm215.67-274.31c-.47-2.4-10.12-8.05-12.31-9.72-9.59-7.72-19.84-14.84-30.42-21.43C368.19-23.64,219.55-13.92,116.25,70.88c-38.41,31.68-68.89,71.89-89.33,117.29-5.19,11.65-9.92,23.7-13.65,35.74C-1.5,271.97-3.57,323.02,5.22,372.42c10.98,61.97,38.27,116.42,82.41,161.48,5.86,5.86,11.92,11.65,18.04,16.97.27.33.47.73.87.93,8.99,8.05,18.17,15.31,27.69,22.17.2-.33.33-.47.6-.73,0,0,.2.13.33.27.47,0,22.76-28.49,22.76-29.29.33-.47.73-.93.93-1.33,9.45-11.78,18.84-23.56,28.22-35.35,9.39-11.72,18.64-23.36,28.02-35.08,6.19-7.72,12.31-15.38,18.44-23.1-9.25-7.39-18.9-14.71-29.02-22.17-.33-.4-.73-.6-1.06-.73-6.06,7.46-11.91,15.04-17.84,22.5-.33.53-.73,1-1.07,1.46-2.4,3.13-4.93,6.12-7.39,9.25-1.66,2.06-3.33,4.26-5.06,6.39-14.31,17.84-28.49,35.81-42.87,53.72-10.05-14.18-14.51-30.22-16.37-47.06-3.2-29.49,1.93-58.04,9.92-86.33,1.2-4.59,2.73-9.19,4.33-13.98-10.38-6.86-21.1-13.98-31.88-21.23-5.19,14.44-9.52,28.96-13.05,43.6-4.46,19.17-6.12,38.81-7.59,58.31.27.6.6,1.06-.2,1.33-.27,0-.67-.73-1-1.13-19.64-33.68-30.55-70.03-34.81-108.7-.8-8.92-1.2-17.97-1.93-28.09v-1.4c-1.07-18.9,3.06-37.81,3.06-37.81,0-.13.07-.4.07-.6,6.26-43.87,21.7-83.01,46.53-119.02,0,0,.6-1.2,1.93-3.26,2.86-4.66,9.59-14.18,21.5-26.23.27-.33.6-.73.87-1.06,29.62-32.02,64.57-55.91,105.24-71.69,14.91,22.43,31.95,42.8,49.66,63.1-14.11,11.25-27.22,22.63-39.67,34.81-12.38,12.18-24.3,24.96-35.88,38.54-21.57-17.11-42.73-33.95-64.03-50.92-3.73-2.93-7.46-5.92-11.18-8.79,2.73,3,5.86,6.46,9.59,10.72,27.62,30.82,84.94,89.46,176.66,160.35.4.4.73.53,1.06.73,4.59,3.73,9.45,7.46,14.24,11.12,4.93,3.59,9.85,7.32,14.91,10.92l10.72-13.45,1.13-1.46s2.73-3.46,7.32-9.25c19.5-24.96,71.62-91.33,71.76-91.33l102.58-130.53c-.07-.47-.2-.93-.33-1.66ZM253.3,44.06c49.32-10.72,97.38-9.32,144.71,6.12-18.44,4.59-36.01,10.92-53.12,18.77-17.04,7.85-33.35,17.24-49.12,27.69-15.04-16.84-29.09-33.68-42.47-52.59Zm115.36,174.6c-9.39,11.91-18.77,23.56-28.16,35.41-9.45,11.65-18.7,23.43-28.09,35.15v-.27l-92.86-73.55c6.79-12.05,48.66-52.99,71.56-69.49,24.7,24.56,50.19,48.39,77.41,70.56.33.27.6.6,1,.87q.07,0,.2.13c-.33.33-.73.67-1.06,1.2Zm24.7-30.95c-.13.2-.4.47-.53.73-.07-.13-.33-.27-.33-.27-.33-.33-.6-.73-.93-.87v-.13c-24.36-19.7-47.13-40.94-70.09-63.57,46.79-26.56,93.19-50.92,150.24-34.55-26.56,33.48-52.39,65.76-78.35,98.65Zm-113.36,143.38c-.07-.13-.2-.33-.47-.33-7.92,10.12-15.98,20.24-24.1,30.35-8.05,10.12-16.11,20.3-24.3,30.69-.13,0-.13-.13-.27-.27-28.02-21.03-56.91-41.54-87.27-60.57,12.51-27.09,27.22-52.25,44.4-76.22-9.98-8.79-19.1-17.17-27.56-25.16-18.57,26.03-34.95,53.25-48.86,82.61-20.5-11.45-40.87-21.63-62.04-30.69-1.66-.73-3.53-1.46-5.46-2.2,1.86,1,3.66,2.06,5.46,3.13,67.76,40.47,125.94,80.01,175.46,116.62.33.2.73.6,1.07.8,13.85-17.57,27.96-35.28,42-52.99-.13,0-.13-.13-.2-.2l12.11-15.58Z"/>
</svg>